<?xml version="1.0" encoding="utf-8"?><!-- Uploaded to: SVG Repo, www.svgrepo.com, Generator: SVG Repo Mixer Tools -->
<svg fill="#000000" width="800px" height="800px" viewBox="0 0 24 24" id="car-shipping-2" data-name="Flat Line" xmlns="http://www.w3.org/2000/svg" class="icon flat-line"><path id="secondary" d="M20,5H10A1,1,0,0,0,9,6V8H5.54a1,1,0,0,0-.84.45l-1.53,2.3A1,1,0,0,0,3,11.3V17H4a2,2,0,0,1,4,0h6a2,2,0,0,1,4,0h2a1,1,0,0,0,1-1V6A1,1,0,0,0,20,5Z" style="fill: rgb(44, 169, 188); stroke-width: 2;"></path><path id="primary" d="M10,5H20a1,1,0,0,1,1,1V16a1,1,0,0,1-1,1H18a2,2,0,0,0-4,0H9V6A1,1,0,0,1,10,5ZM3,11.3V17H4a2,2,0,0,1,4,0H9V8H5.54a1,1,0,0,0-.84.45l-1.53,2.3A1,1,0,0,0,3,11.3Z" style="fill: none; stroke: rgb(0, 0, 0); stroke-linecap: round; stroke-linejoin: round; stroke-width: 2;"></path><path id="primary-2" data-name="primary" d="M16,15a2,2,0,1,1-2,2A2,2,0,0,1,16,15ZM4,17a2,2,0,1,0,2-2A2,2,0,0,0,4,17Z" style="fill: none; stroke: rgb(0, 0, 0); stroke-linecap: round; stroke-linejoin: round; stroke-width: 2;"></path></svg>